Coordinates
version=1
nRows=16
nColumns=40
inDegrees=yes

Units are S.I. units (second, meters, Newtons, ...)
Angles are in degrees.

endheader
time	pelvis_tilt	pelvis_list	pelvis_rotation	pelvis_tx	pelvis_ty	pelvis_tz	hip_flexion_r	hip_adduction_r	hip_rotation_r	knee_angle_r	knee_angle_r_beta	ankle_angle_r	subtalar_angle_r	mtp_angle_r	hip_flexion_l	hip_adduction_l	hip_rotation_l	knee_angle_l	knee_angle_l_beta	ankle_angle_l	subtalar_angle_l	mtp_angle_l	lumbar_extension	lumbar_bending	lumbar_rotation	arm_flex_r	arm_add_r	arm_rot_r	elbow_flex_r	pro_sup_r	wrist_flex_r	wrist_dev_r	arm_flex_l	arm_add_l	arm_rot_l	elbow_flex_l	pro_sup_l	wrist_flex_l	wrist_dev_l
     25.53750000	     -2.80903133	     -3.15453295	      5.94378877	      1.09194285	      0.93409856	      0.51002833	      9.25763802	      0.52875859	    -18.93788959	     16.05894066	     16.05894066	     11.28133817	     -0.42858738	     -4.61376503	     31.28158366	    -10.67324024	     -0.74287074	     40.73140071	     40.73140071	      9.58975776	    -15.63412741	      9.74226510	    -10.40119724	      5.23722517	      2.25953535	     23.05549563	    -24.17772091	     -3.57612123	     70.52180020	     45.20136997	      0.00000000	      0.00000000	      1.60904559	     -9.32737071	     -8.97532294	     32.10017517	     46.46980881	      0.00000000	      0.00000000
     25.55100000	     -2.84632240	     -3.14194873	      6.26998497	      1.09103208	      0.93417133	      0.51006660	      8.76313903	      0.63421989	    -19.05546675	     15.64632181	     15.64632181	     11.36441585	     -0.56457009	     -4.83155521	     31.21501152	    -10.22042846	     -0.68464704	     36.73212773	     36.73212773	      9.41042936	    -14.49405815	      9.52143713	    -10.46911001	      5.23705395	      2.13768478	     24.47996018	    -23.92904051	     -3.56006071	     71.75442366	     45.16842391	      0.00000000	      0.00000000	      0.87224618	     -9.22845176	     -8.63531903	     30.62748335	     46.40734418	      0.00000000	      0.00000000
     25.56450000	     -3.03756911	     -3.08676525	      6.51486776	      1.09011838	      0.93390458	      0.50993079	      8.46154770	      0.65756996	    -19.11241305	     15.29895217	     15.29895217	     11.45980063	     -0.72142017	     -5.01939744	     31.19255777	     -9.71364366	     -0.70188537	     32.74804587	     32.74804587	      9.34646865	    -13.06906582	      9.41705445	    -10.33592808	      5.16409481	      2.18013358	     25.80319424	    -23.86935231	     -3.60681494	     72.83074739	     45.14232327	      0.00000000	      0.00000000	      0.16104324	     -9.03271747	     -8.31984545	     29.54114431	     46.34793699	      0.00000000	      0.00000000
     25.57800000	     -3.11279333	     -3.14590780	      6.76659175	      1.08930357	      0.93360192	      0.50974259	      7.99281038	      0.84719225	    -19.12319300	     14.81213571	     14.81213571	     11.18193661	     -1.09475505	     -6.17770371	     30.88164846	     -9.32677290	     -0.65291998	     28.58621097	     28.58621097	      7.88073340	    -11.94057623	      6.13619449	    -10.30654387	      5.23044671	      2.49979617	     26.72924397	    -24.06132357	     -3.74832070	     74.76689312	     45.11177985	      0.00000000	      0.00000000	      0.13280285	     -8.95981402	     -6.11030174	     26.94033748	     45.99426883	      0.00000000	      0.00000000
     25.59150000	     -3.35531254	     -3.25859581	      7.00462004	      1.08832551	      0.93295876	      0.50939799	      7.87616349	      0.98928463	    -19.22964469	     14.68319976	     14.68319976	     11.38703382	     -1.24919409	     -6.24821686	     30.99029931	     -8.96800878	     -0.53077899	     25.20657702	     25.20657702	      7.86034148	    -10.28770595	      6.63517784	    -10.08059711	      5.33162715	      2.68631817	     28.03561868	    -24.08365637	     -3.95838771	     75.62799728	     45.09778098	      0.00000000	      0.00000000	     -0.66474056	     -8.65897052	     -5.96368494	     26.60558996	     45.95586826	      0.00000000	      0.00000000
     25.60500000	     -3.44254525	     -3.20882963	      7.19587628	      1.08751160	      0.93270565	      0.50896188	      7.51965289	      0.99454675	    -19.21786924	     14.46482910	     14.46482910	     11.57999152	     -1.39067708	     -6.28323618	     30.76627874	     -8.51937892	     -0.67462632	     22.00212928	     22.00212928	      7.73764429	     -8.50086985	      7.15432945	    -10.06443082	      5.20049120	      2.59759283	     29.33489921	    -23.66623889	     -4.07492726	     76.85425711	     45.06879629	      0.00000000	      0.00000000	     -1.52635345	     -8.47475455	     -5.73358974	     26.17098715	     45.90225870	      0.00000000	      0.00000000
     25.61850000	     -3.43567594	     -3.24790551	      7.38655517	      1.08686442	      0.93243483	      0.50843729	      7.03576763	      1.11505066	    -19.21641277	     14.19311676	     14.19311676	     11.77531196	     -1.50343255	     -6.32334005	     30.58035096	     -8.20581180	     -0.88476103	     19.47065078	     19.47065078	      7.68062047	     -6.78281696	      7.51369111	    -10.16647703	      5.20532519	      2.29800895	     30.68795877	    -23.07561440	     -4.21872836	     78.52697367	     45.02927303	      0.00000000	      0.00000000	     -2.55657740	     -8.35701074	     -5.21466453	     25.78406504	     45.79413243	      0.00000000	      0.00000000
     25.63200000	     -3.55208798	     -3.30703374	      7.55927510	      1.08616162	      0.93196563	      0.50776320	      6.75130433	      1.20296208	    -19.23490408	     14.04536622	     14.04536622	     11.97821153	     -1.61139756	     -6.36737039	     30.58678164	     -7.89029186	     -1.07244340	     17.49943368	     17.49943368	      7.50710754	     -5.44753821	      7.84898236	    -10.06229527	      5.19739561	      2.31792925	     31.81842951	    -22.75359787	     -4.35622401	     79.69634547	     45.00352129	      0.00000000	      0.00000000	     -3.35005446	     -8.14367927	     -4.86267026	     25.57660394	     45.71777659	      0.00000000	      0.00000000
     25.64550000	     -3.59684317	     -3.37053391	      7.71889897	      1.08560007	      0.93154481	      0.50695309	      6.35620467	      1.30595336	    -19.26165531	     13.85585031	     13.85585031	     12.20485005	     -1.68169813	     -6.37289517	     30.60557860	     -7.61955068	     -1.35322768	     16.22607042	     16.22607042	      7.35220411	     -4.40171252	      7.97303602	    -10.06895049	      5.18846699	      2.18706665	     32.95395835	    -22.30931279	     -4.55115311	     81.15637589	     44.97173455	      0.00000000	      0.00000000	     -4.29071112	     -7.96209667	     -4.36332296	     25.49093416	     45.61127101	      0.00000000	      0.00000000
     25.65900000	     -3.64869983	     -3.46948510	      7.86731704	      1.08513434	      0.93108963	      0.50603903	      5.97310122	      1.43382297	    -19.30954809	     13.68217185	     13.68217185	     12.43671992	     -1.69687761	     -6.36138973	     30.69485790	     -7.40473453	     -1.61189636	     15.58543516	     15.58543516	      7.13476094	     -3.72511066	      7.88085990	    -10.02021882	      5.22373254	      2.11213847	     33.98444155	    -21.87727782	     -4.78225762	     82.60508932	     44.94205224	      0.00000000	      0.00000000	     -5.17804836	     -7.78261715	     -3.79635566	     25.59161643	     45.49323090	      0.00000000	      0.00000000
     25.67250000	     -3.68628493	     -3.59335607	      8.00099715	      1.08482807	      0.93054927	      0.50495887	      5.56222010	      1.57780398	    -19.37373560	     13.49677915	     13.49677915	     12.69688985	     -1.64194382	     -6.31713548	     30.82428455	     -7.24216757	     -1.81243130	     15.57977492	     15.57977492	      6.84875418	     -3.43549567	      7.41952417	     -9.97254279	      5.28463881	      2.08102023	     34.85846221	    -21.44471816	     -5.07323792	     84.11847865	     44.91387049	      0.00000000	      0.00000000	     -6.12423916	     -7.65122446	     -3.05801538	     25.95620940	     45.34454016	      0.00000000	      0.00000000
     25.68600000	     -3.71381602	     -3.72943006	      8.07613529	      1.08476773	      0.92988554	      0.50387306	      5.14627903	      1.72666451	    -19.42161123	     13.37206052	     13.37206052	     13.06121256	     -1.50598046	     -6.19908472	     30.79795328	     -7.13050018	     -1.92061186	     15.78140305	     15.78140305	      5.91103312	     -3.69901412	      5.47765159	     -9.88317550	      5.34498191	      2.59551281	     35.26095388	    -21.51441366	     -5.75417771	     85.77707412	     44.99677803	      0.00000000	      0.00000000	     -7.52680791	     -8.69057103	      4.90709769	     28.20376102	     44.24822326	      0.00000000	      0.00000000
     25.69950000	     -3.70387176	     -3.87763950	      8.14726078	      1.08487126	      0.92923238	      0.50258807	      4.67124740	      1.88511635	    -19.43987830	     13.22131682	     13.22131682	     13.35919947	     -1.40111636	     -6.23396835	     30.78442011	     -7.05634749	     -1.89231316	     16.57988222	     16.57988222	      5.67864578	     -4.06430047	      5.26139888	     -9.78962896	      5.41866988	      2.59869953	     36.06583918	    -21.19419106	     -5.91518123	     86.72290556	     44.97900917	      0.00000000	      0.00000000	     -8.19174340	     -8.46501571	      4.94412439	     28.18254234	     44.25100079	      0.00000000	      0.00000000
     25.71300000	     -3.66610082	     -4.01601706	      8.15869489	      1.08528087	      0.92848577	      0.50121119	      4.14870736	      2.03047384	    -19.44939700	     13.08101763	     13.08101763	     13.69075303	     -1.27304365	     -6.27836735	     30.63031048	     -7.02169204	     -1.80832485	     17.58657399	     17.58657399	      5.42007802	     -4.56079714	      4.97635648	     -9.68508641	      5.45744579	      2.71671547	     36.79113776	    -20.94213417	     -6.06412923	     87.57329291	     44.96248319	      0.00000000	      0.00000000	     -8.80502263	     -8.26455415	      4.96215662	     28.24955018	     44.25059289	      0.00000000	      0.00000000
     25.72650000	     -3.62207501	     -4.21806697	      8.15554305	      1.08593461	      0.92758532	      0.49976105	      3.59447955	      2.24607659	    -19.45102396	     12.90637005	     12.90637005	     14.04367967	     -1.07094006	     -6.31709011	     30.39895728	     -7.06686487	     -1.60324576	     18.71241448	     18.71241448	      5.12210688	     -5.16504276	      4.62906707	     -9.55317626	      5.52730573	      2.76388649	     37.35791180	    -20.64445812	     -6.22109374	     88.51846556	     44.94293400	      0.00000000	      0.00000000	     -9.45335626	     -8.08016449	      4.95885438	     28.44145624	     44.25311291	      0.00000000	      0.00000000
     25.74000000	     -3.63375962	     -4.27851023	      8.02132014	      1.08687016	      0.92666379	      0.49821999	      3.11051348	      2.27481873	    -19.28693513	     12.82628966	     12.82628966	     14.43196965	     -0.95113406	     -6.40306818	     29.91052504	     -7.02959004	     -1.55179056	     19.54356665	     19.54356665	      4.84865145	     -5.55513814	      4.53322213	     -9.29803991	      5.42288968	      2.99777608	     37.71791266	    -20.57768463	     -6.31676938	     88.93932990	     44.93523109	      0.00000000	      0.00000000	    -10.07204070	     -7.88016810	      4.96732287	     28.41030097	     44.24589775	      0.00000000	      0.00000000
